<?xml version="1.0" encoding="UTF-8" standalone="no"?>
<svg
   viewBox="0 0 24 24"
   width="24"
   height="24"
   version="1.1"
   id="svg2"
   sodipodi:docname="brush-paint-line.svg"
   xml:space="preserve"
   inkscape:version="1.3.2 (1:1.3.2+202311252150+091e20ef0f)"
   xmlns:inkscape="http://www.inkscape.org/namespaces/inkscape"
   xmlns:sodipodi="http://sodipodi.sourceforge.net/DTD/sodipodi-0.dtd"
   xmlns="http://www.w3.org/2000/svg"
   xmlns:svg="http://www.w3.org/2000/svg"><defs
     id="defs2" /><sodipodi:namedview
     id="namedview2"
     pagecolor="#ffffff"
     bordercolor="#000000"
     borderopacity="0.25"
     inkscape:showpageshadow="2"
     inkscape:pageopacity="0.0"
     inkscape:pagecheckerboard="0"
     inkscape:deskcolor="#d1d1d1"
     inkscape:zoom="12.123935"
     inkscape:cx="16.331331"
     inkscape:cy="7.0521658"
     inkscape:window-width="1920"
     inkscape:window-height="1020"
     inkscape:window-x="0"
     inkscape:window-y="32"
     inkscape:window-maximized="1"
     inkscape:current-layer="svg2" /><path
     fill="none"
     d="M0 0h24v24H0z"
     id="path1" /><path
     d="m 4.4986732,8.773785 2.3383781,0 c 0.4032822,0 0.7302073,0.3269248 0.7302073,0.730207 v 2.190623 h 0.7302071 v 4.381244 H 5.3766365 V 11.694615 H 6.1068439 V 10.2342 l -2.3383781,0 c -0.4032826,0 -0.7302077,-0.3269254 -0.7302074,-0.730208 V 8.043578 h 1.4604148 z"
     id="path4"
     style="stroke-width:0.730207"
     sodipodi:nodetypes="csscccccccssccc" /><path
     id="path3"
     d="M 3.0382584,2.4545281 A 0.7302074,0.7302074 0 0 0 2.308051,3.1847355 v 3.6510371 a 0.7302074,0.7302074 0 0 0 0.7302074,0.730207 H 14.721577 a 0.7302074,0.7302074 0 0 0 0.730207,-0.730207 V 3.1847355 A 0.7302074,0.7302074 0 0 0 14.721577,2.4545281 Z M 3.7684658,3.9149429 H 13.991369 V 6.1055646 H 3.7684658 Z"
     style="stroke-width:0.730207" /><g
     id="g2"
     transform="matrix(0.68642272,0,0,0.68642272,6.5022974,7.9869043)"><path
       fill="none"
       d="M 0,0 H 24 V 24 H 0 Z"
       id="path1-5" /><path
       d="M 15.456,9.678 15.314,9.536 a 5.475,5.475 0 0 0 -2.39,-1.349 c -2.907,-0.778 -5.699,0.869 -6.492,3.83 -0.043,0.16 -0.066,0.34 -0.104,0.791 -0.154,1.87 -0.594,3.265 -1.8,4.68 2.26,0.888 4.938,1.514 6.974,1.514 a 5.505,5.505 0 0 0 5.31,-4.078 5.497,5.497 0 0 0 -1.356,-5.246 z M 13.29,6.216 18.229,2.375 a 1,1 0 0 1 1.32,0.082 l 2.995,2.994 a 1,1 0 0 1 0.082,1.321 l -3.84,4.938 a 7.505,7.505 0 0 1 -7.283,9.292 C 8,21.002 3.5,19.5 1,18 4.98,15 4.047,13.19 4.5,11.5 5.558,7.55 9.342,5.243 13.289,6.216 Z m 3.413,1.879 c 0.065,0.063 0.13,0.128 0.193,0.194 L 18.031,9.423 20.506,6.241 18.76,4.495 15.578,6.97 Z"
       id="path2-3" /></g></svg>
